# xmcd
#
# Track frame offsets:
#	150
#	16633
#	29864
#	44822
#	67024
#	80087
#	95017
#	110608
#	127103
#	145323
#	162049
#	176337
#	193482
#	212754
#	227078
#	243872
#	255906
#	271594
#	285862
#	301667
#	315562
#
# Disc length: 4420 seconds
#
# Revision: 0
# Processed by: cddbd v1.5.2PL0 Copyright (c) Steve Scherf et al.
# Submitted via: audiograbber 1.83.01
#
DISCID=27114215
DTITLE=Various Artist - CDX Volume 663 and 664
DYEAR=2018
DGENRE=Country
TTITLE0=Luke Bryan - Sunrise, Sunburn, Sunset
TTITLE1=Blackjack Billy - Straight Line Sober
TTITLE2=Tony Jackson - Ain't No App For That
TTITLE3=Rebel Hearts - Hero's
TTITLE4=Kyle Mitchell - One In Georgia
TTITLE5=Robbie Robinson - Save This Child
TTITLE6=Mags - Strong Enough
TTITLE7=Casey Donahew - That Got The Girl
TTITLE8=Dierks Bentley (featuring Brothers Osborne) - Burning Man
TTITLE9=Michael Ray - The One That Got Away
TTITLE10=Ashley McBryde - Radioland
TTITLE11=Lee Brice - Rumor
TTITLE12=Darius Rucker (featuring Jason Aldean, Luke Bryan and Charles Kelley) 
TTITLE12=/ Straight To Hell [radio edit]
TTITLE13=Little Big Town - Summer Fever
TTITLE14=Lisa Bouchelle - If You Could Read My Mind
TTITLE15=David Frizzell and Marty Haggard - Lefty, Merle and Me
TTITLE16=Cody Jinks - Must Be The Whiskey
TTITLE17=Joe Lasher - Nothing Better To Do
TTITLE18=Red Marlow - The Good Ones
TTITLE19=Houston Bernard Band - We Made Out
TTITLE20=Red Marlow - My House In Heaven
EXTD=
EXTT0=
EXTT1=
EXTT2=
EXTT3=
EXTT4=
EXTT5=
EXTT6=
EXTT7=
EXTT8=
EXTT9=
EXTT10=
EXTT11=
EXTT12=
EXTT13=
EXTT14=
EXTT15=
EXTT16=
EXTT17=
EXTT18=
EXTT19=
EXTT20=
PLAYORDER=
